M48
; DRILL file {KiCad 9.0.7-9.0.7~ubuntu24.04.1} date 2026-03-21T22:47:37-0400
; FORMAT={-:-/ absolute / inch / decimal}
; #@! TF.CreationDate,2026-03-21T22:47:37-04:00
; #@! TF.GenerationSoftware,Kicad,Pcbnew,9.0.7-9.0.7~ubuntu24.04.1
; #@! TF.FileFunction,NonPlated,1,2,NPTH
FMAT,2
INCH
; #@! TA.AperFunction,NonPlated,NPTH,ComponentDrill
T1C0.0256
; #@! TA.AperFunction,NonPlated,NPTH,ComponentDrill
T2C0.0906
%
G90
G05
T1
X4.6134Y-5.5791
X4.8409Y-5.5791
T2
X3.2028Y-3.1638
X3.2028Y-3.6362
X3.2028Y-4.3709
X3.2028Y-4.8433
X3.2031Y-3.7673
X3.2031Y-4.2398
X3.2031Y-4.974
X3.2031Y-5.4465
X3.6217Y-2.972
X4.0941Y-2.972
X4.226Y-2.974
X4.6984Y-2.974
X4.8295Y-2.9736
X5.302Y-2.9736
X5.4339Y-2.9744
X5.9063Y-2.9744
X6.3189Y-3.763
X6.3189Y-4.2354
X6.3189Y-4.3657
X6.3189Y-4.8382
X6.3197Y-3.1591
X6.3197Y-3.6315
X6.3197Y-4.9701
X6.3197Y-5.4425
M30
