%TF.GenerationSoftware,KiCad,Pcbnew,9.0.7-9.0.7~ubuntu24.04.1*%
%TF.CreationDate,2026-03-21T22:47:30-04:00*%
%TF.ProjectId,CertamenBuzzers,43657274-616d-4656-9e42-757a7a657273,rev?*%
%TF.SameCoordinates,Original*%
%TF.FileFunction,Soldermask,Top*%
%TF.FilePolarity,Negative*%
%FSLAX46Y46*%
G04 Gerber Fmt 4.6, Leading zero omitted, Abs format (unit mm)*
G04 Created by KiCad (PCBNEW 9.0.7-9.0.7~ubuntu24.04.1) date 2026-03-21 22:47:30*
%MOMM*%
%LPD*%
G01*
G04 APERTURE LIST*
G04 Aperture macros list*
%AMRoundRect*
0 Rectangle with rounded corners*
0 $1 Rounding radius*
0 $2 $3 $4 $5 $6 $7 $8 $9 X,Y pos of 4 corners*
0 Add a 4 corners polygon primitive as box body*
4,1,4,$2,$3,$4,$5,$6,$7,$8,$9,$2,$3,0*
0 Add four circle primitives for the rounded corners*
1,1,$1+$1,$2,$3*
1,1,$1+$1,$4,$5*
1,1,$1+$1,$6,$7*
1,1,$1+$1,$8,$9*
0 Add four rect primitives between the rounded corners*
20,1,$1+$1,$2,$3,$4,$5,0*
20,1,$1+$1,$4,$5,$6,$7,0*
20,1,$1+$1,$6,$7,$8,$9,0*
20,1,$1+$1,$8,$9,$2,$3,0*%
G04 Aperture macros list end*
%ADD10R,1.700000X1.700000*%
%ADD11C,1.700000*%
%ADD12RoundRect,0.200000X-0.200000X-0.275000X0.200000X-0.275000X0.200000X0.275000X-0.200000X0.275000X0*%
%ADD13RoundRect,0.250000X0.250000X0.475000X-0.250000X0.475000X-0.250000X-0.475000X0.250000X-0.475000X0*%
%ADD14RoundRect,0.200000X0.275000X-0.200000X0.275000X0.200000X-0.275000X0.200000X-0.275000X-0.200000X0*%
%ADD15RoundRect,0.250000X0.475000X-0.250000X0.475000X0.250000X-0.475000X0.250000X-0.475000X-0.250000X0*%
%ADD16C,2.300000*%
%ADD17R,1.520000X1.520000*%
%ADD18C,1.520000*%
%ADD19R,0.900000X1.000000*%
%ADD20RoundRect,0.375000X0.375000X-0.625000X0.375000X0.625000X-0.375000X0.625000X-0.375000X-0.625000X0*%
%ADD21RoundRect,0.500000X1.400000X-0.500000X1.400000X0.500000X-1.400000X0.500000X-1.400000X-0.500000X0*%
%ADD22RoundRect,0.200000X-0.275000X0.200000X-0.275000X-0.200000X0.275000X-0.200000X0.275000X0.200000X0*%
%ADD23RoundRect,0.200000X0.200000X0.275000X-0.200000X0.275000X-0.200000X-0.275000X0.200000X-0.275000X0*%
%ADD24RoundRect,0.250000X-0.475000X0.250000X-0.475000X-0.250000X0.475000X-0.250000X0.475000X0.250000X0*%
%ADD25C,0.650000*%
%ADD26RoundRect,0.150000X-0.150000X-0.425000X0.150000X-0.425000X0.150000X0.425000X-0.150000X0.425000X0*%
%ADD27RoundRect,0.075000X-0.075000X-0.500000X0.075000X-0.500000X0.075000X0.500000X-0.075000X0.500000X0*%
%ADD28O,1.000000X2.100000*%
%ADD29O,1.000000X1.800000*%
%ADD30RoundRect,0.125000X-0.250000X-0.125000X0.250000X-0.125000X0.250000X0.125000X-0.250000X0.125000X0*%
%ADD31R,3.400000X4.300000*%
%ADD32R,2.000000X2.000000*%
%ADD33C,2.000000*%
%ADD34RoundRect,0.225000X-0.250000X0.225000X-0.250000X-0.225000X0.250000X-0.225000X0.250000X0.225000X0*%
%ADD35RoundRect,0.225000X0.250000X-0.225000X0.250000X0.225000X-0.250000X0.225000X-0.250000X-0.225000X0*%
%ADD36RoundRect,0.050000X0.387500X0.050000X-0.387500X0.050000X-0.387500X-0.050000X0.387500X-0.050000X0*%
%ADD37RoundRect,0.050000X0.050000X0.387500X-0.050000X0.387500X-0.050000X-0.387500X0.050000X-0.387500X0*%
%ADD38R,3.200000X3.200000*%
%ADD39RoundRect,0.250000X-0.325000X-0.250000X0.325000X-0.250000X0.325000X0.250000X-0.325000X0.250000X0*%
%ADD40RoundRect,0.093750X0.106250X-0.093750X0.106250X0.093750X-0.106250X0.093750X-0.106250X-0.093750X0*%
%ADD41R,1.600000X1.000000*%
G04 APERTURE END LIST*
D10*
%TO.C,SW6*%
X107220000Y-119200000D03*
D11*
X109760000Y-119200000D03*
%TD*%
D12*
%TO.C,R25*%
X144590000Y-132810000D03*
X146240000Y-132810000D03*
%TD*%
D13*
%TO.C,C8*%
X115407176Y-134561000D03*
X113507176Y-134561000D03*
%TD*%
D14*
%TO.C,R26*%
X127350000Y-141900000D03*
X127350000Y-140250000D03*
%TD*%
D15*
%TO.C,C3*%
X111680000Y-130600000D03*
X111680000Y-128700000D03*
%TD*%
D16*
%TO.C,J7*%
X81360000Y-95690000D03*
X81360000Y-107690000D03*
D17*
X86200000Y-104240000D03*
D18*
X83660000Y-103220000D03*
X86200000Y-102200000D03*
X83660000Y-101180000D03*
X86200000Y-100160000D03*
X83660000Y-99140000D03*
%TD*%
D19*
%TO.C,SW2*%
X134200000Y-121170000D03*
X130100000Y-121170000D03*
X134200000Y-119570000D03*
X130100000Y-119570000D03*
%TD*%
D16*
%TO.C,J9*%
X160500000Y-122890000D03*
X160500000Y-110890000D03*
D17*
X155660000Y-114340000D03*
D18*
X158200000Y-115360000D03*
X155660000Y-116380000D03*
X158200000Y-117400000D03*
X155660000Y-118420000D03*
X158200000Y-119440000D03*
%TD*%
D14*
%TO.C,R1*%
X120370000Y-133910000D03*
X120370000Y-132260000D03*
%TD*%
D12*
%TO.C,R27*%
X107990000Y-121920000D03*
X109640000Y-121920000D03*
%TD*%
D20*
%TO.C,U2*%
X102660000Y-138920000D03*
X104960000Y-138920000D03*
D21*
X104960000Y-132620000D03*
D20*
X107260000Y-138920000D03*
%TD*%
D10*
%TO.C,SW3*%
X138367176Y-121711000D03*
D11*
X140907176Y-121711000D03*
%TD*%
D22*
%TO.C,R6*%
X91190000Y-113850000D03*
X91190000Y-115500000D03*
%TD*%
%TO.C,R12*%
X150890000Y-115795000D03*
X150890000Y-117445000D03*
%TD*%
D10*
%TO.C,SW4*%
X147960000Y-135585000D03*
D11*
X145420000Y-135585000D03*
%TD*%
D16*
%TO.C,J4*%
X160500000Y-107580000D03*
X160500000Y-95580000D03*
D17*
X155660000Y-99030000D03*
D18*
X158200000Y-100050000D03*
X155660000Y-101070000D03*
X158200000Y-102090000D03*
X155660000Y-103110000D03*
X158200000Y-104130000D03*
%TD*%
D23*
%TO.C,R17*%
X131520000Y-130590000D03*
X129870000Y-130590000D03*
%TD*%
D14*
%TO.C,R3*%
X128550000Y-125170000D03*
X128550000Y-123520000D03*
%TD*%
D24*
%TO.C,C7*%
X109660000Y-132140000D03*
X109660000Y-134040000D03*
%TD*%
D16*
%TO.C,J6*%
X81350000Y-111020000D03*
X81350000Y-123020000D03*
D17*
X86190000Y-119570000D03*
D18*
X83650000Y-118550000D03*
X86190000Y-117530000D03*
X83650000Y-116510000D03*
X86190000Y-115490000D03*
X83650000Y-114470000D03*
%TD*%
D25*
%TO.C,J1*%
X117180000Y-141710000D03*
X122960000Y-141710000D03*
D26*
X116870000Y-140635000D03*
X117670000Y-140635000D03*
D27*
X118820000Y-140635000D03*
X119820000Y-140635000D03*
X120320000Y-140635000D03*
X121320000Y-140635000D03*
D26*
X122470000Y-140635000D03*
X123270000Y-140635000D03*
X123270000Y-140635000D03*
X122470000Y-140635000D03*
D27*
X121820000Y-140635000D03*
X120820000Y-140635000D03*
X119320000Y-140635000D03*
X118320000Y-140635000D03*
D26*
X117670000Y-140635000D03*
X116870000Y-140635000D03*
D28*
X115750000Y-141210000D03*
D29*
X115750000Y-145390000D03*
D28*
X124390000Y-141210000D03*
D29*
X124390000Y-145390000D03*
%TD*%
D12*
%TO.C,R15*%
X143705000Y-86030000D03*
X145355000Y-86030000D03*
%TD*%
%TO.C,R9*%
X98225000Y-85620000D03*
X99875000Y-85620000D03*
%TD*%
D30*
%TO.C,U4*%
X136030000Y-132300000D03*
X136030000Y-133570000D03*
X136030000Y-134840000D03*
X136030000Y-136110000D03*
X141430000Y-136110000D03*
X141430000Y-134840000D03*
X141430000Y-133570000D03*
X141430000Y-132300000D03*
D31*
X138730000Y-134205000D03*
%TD*%
D19*
%TO.C,SW1*%
X134110000Y-134040000D03*
X130010000Y-134040000D03*
X134110000Y-132440000D03*
X130010000Y-132440000D03*
%TD*%
D23*
%TO.C,R21*%
X143950000Y-126890000D03*
X142300000Y-126890000D03*
%TD*%
D14*
%TO.C,R4*%
X128390000Y-120870000D03*
X128390000Y-119220000D03*
%TD*%
D16*
%TO.C,J11*%
X150020000Y-75550000D03*
X138020000Y-75550000D03*
D17*
X141470000Y-80390000D03*
D18*
X142490000Y-77850000D03*
X143510000Y-80390000D03*
X144530000Y-77850000D03*
X145550000Y-80390000D03*
X146570000Y-77850000D03*
%TD*%
D32*
%TO.C,BZ2*%
X119440000Y-110260000D03*
D33*
X124440000Y-110260000D03*
%TD*%
D14*
%TO.C,R2*%
X118820000Y-133910000D03*
X118820000Y-132260000D03*
%TD*%
D15*
%TO.C,C4*%
X109660000Y-130600000D03*
X109660000Y-128700000D03*
%TD*%
D34*
%TO.C,C6*%
X133710000Y-123305000D03*
X133710000Y-124855000D03*
%TD*%
D16*
%TO.C,J10*%
X160520000Y-138240000D03*
X160520000Y-126240000D03*
D17*
X155680000Y-129690000D03*
D18*
X158220000Y-130710000D03*
X155680000Y-131730000D03*
X158220000Y-132750000D03*
X155680000Y-133770000D03*
X158220000Y-134790000D03*
%TD*%
D22*
%TO.C,R13*%
X150560000Y-86420000D03*
X150560000Y-88070000D03*
%TD*%
D35*
%TO.C,C5*%
X127040000Y-125130000D03*
X127040000Y-123580000D03*
%TD*%
D14*
%TO.C,R5*%
X91320000Y-132465000D03*
X91320000Y-130815000D03*
%TD*%
D16*
%TO.C,J8*%
X134670000Y-75530000D03*
X122670000Y-75530000D03*
D17*
X126120000Y-80370000D03*
D18*
X127140000Y-77830000D03*
X128160000Y-80370000D03*
X129180000Y-77830000D03*
X130200000Y-80370000D03*
X131220000Y-77830000D03*
%TD*%
D24*
%TO.C,C2*%
X111680000Y-132140000D03*
X111680000Y-134040000D03*
%TD*%
D23*
%TO.C,R18*%
X143950000Y-128370000D03*
X142300000Y-128370000D03*
%TD*%
D22*
%TO.C,R8*%
X150600000Y-101545000D03*
X150600000Y-103195000D03*
%TD*%
D36*
%TO.C,U1*%
X124295000Y-128950000D03*
X124295000Y-128550000D03*
X124295000Y-128150000D03*
X124295000Y-127750000D03*
X124295000Y-127350000D03*
X124295000Y-126950000D03*
X124295000Y-126550000D03*
X124295000Y-126150000D03*
X124295000Y-125750000D03*
X124295000Y-125350000D03*
X124295000Y-124950000D03*
X124295000Y-124550000D03*
X124295000Y-124150000D03*
X124295000Y-123750000D03*
D37*
X123457500Y-122912500D03*
X123057500Y-122912500D03*
X122657500Y-122912500D03*
X122257500Y-122912500D03*
X121857500Y-122912500D03*
X121457500Y-122912500D03*
X121057500Y-122912500D03*
X120657500Y-122912500D03*
X120257500Y-122912500D03*
X119857500Y-122912500D03*
X119457500Y-122912500D03*
X119057500Y-122912500D03*
X118657500Y-122912500D03*
X118257500Y-122912500D03*
D36*
X117420000Y-123750000D03*
X117420000Y-124150000D03*
X117420000Y-124550000D03*
X117420000Y-124950000D03*
X117420000Y-125350000D03*
X117420000Y-125750000D03*
X117420000Y-126150000D03*
X117420000Y-126550000D03*
X117420000Y-126950000D03*
X117420000Y-127350000D03*
X117420000Y-127750000D03*
X117420000Y-128150000D03*
X117420000Y-128550000D03*
X117420000Y-128950000D03*
D37*
X118257500Y-129787500D03*
X118657500Y-129787500D03*
X119057500Y-129787500D03*
X119457500Y-129787500D03*
X119857500Y-129787500D03*
X120257500Y-129787500D03*
X120657500Y-129787500D03*
X121057500Y-129787500D03*
X121457500Y-129787500D03*
X121857500Y-129787500D03*
X122257500Y-129787500D03*
X122657500Y-129787500D03*
X123057500Y-129787500D03*
X123457500Y-129787500D03*
D38*
X120857500Y-126350000D03*
%TD*%
D16*
%TO.C,J14*%
X160520000Y-92240000D03*
X160520000Y-80240000D03*
D17*
X155680000Y-83690000D03*
D18*
X158220000Y-84710000D03*
X155680000Y-85730000D03*
X158220000Y-86750000D03*
X155680000Y-87770000D03*
X158220000Y-88790000D03*
%TD*%
D24*
%TO.C,C1*%
X109670000Y-137520000D03*
X109670000Y-139420000D03*
%TD*%
D10*
%TO.C,SSD1*%
X134530000Y-108650000D03*
D11*
X137070000Y-108650000D03*
X139610000Y-108650000D03*
X142150000Y-108650000D03*
%TD*%
D16*
%TO.C,J5*%
X119340000Y-75540000D03*
X107340000Y-75540000D03*
D17*
X110790000Y-80380000D03*
D18*
X111810000Y-77840000D03*
X112830000Y-80380000D03*
X113850000Y-77840000D03*
X114870000Y-80380000D03*
X115890000Y-77840000D03*
%TD*%
D39*
%TO.C,Y1*%
X130270000Y-124810000D03*
X132020000Y-124810000D03*
X132020000Y-123410000D03*
X130270000Y-123410000D03*
%TD*%
D14*
%TO.C,R22*%
X121097176Y-137201000D03*
X121097176Y-135551000D03*
%TD*%
D12*
%TO.C,R11*%
X128790000Y-86020000D03*
X130440000Y-86020000D03*
%TD*%
D23*
%TO.C,R19*%
X146955000Y-128370000D03*
X145305000Y-128370000D03*
%TD*%
D32*
%TO.C,BZ3*%
X115120000Y-101840000D03*
D33*
X115120000Y-96840000D03*
%TD*%
D14*
%TO.C,R10*%
X91190000Y-101760000D03*
X91190000Y-100110000D03*
%TD*%
D40*
%TO.C,U3*%
X111380000Y-139007500D03*
X112030000Y-139007500D03*
X112680000Y-139007500D03*
X112680000Y-137232500D03*
X112030000Y-137232500D03*
X111380000Y-137232500D03*
D41*
X112030000Y-138120000D03*
%TD*%
D16*
%TO.C,J3*%
X81360000Y-126340000D03*
X81360000Y-138340000D03*
D17*
X86200000Y-134890000D03*
D18*
X83660000Y-133870000D03*
X86200000Y-132850000D03*
X83660000Y-131830000D03*
X86200000Y-130810000D03*
X83660000Y-129790000D03*
%TD*%
D14*
%TO.C,R16*%
X150030000Y-131315000D03*
X150030000Y-129665000D03*
%TD*%
%TO.C,R24*%
X118117176Y-137161000D03*
X118117176Y-135511000D03*
%TD*%
D10*
%TO.C,SW5*%
X132690000Y-140900000D03*
D11*
X130150000Y-140900000D03*
%TD*%
D23*
%TO.C,R23*%
X138057176Y-124881000D03*
X136407176Y-124881000D03*
%TD*%
D16*
%TO.C,J12*%
X81350000Y-80360000D03*
X81350000Y-92360000D03*
D17*
X86190000Y-88910000D03*
D18*
X83650000Y-87890000D03*
X86190000Y-86870000D03*
X83650000Y-85850000D03*
X86190000Y-84830000D03*
X83650000Y-83810000D03*
%TD*%
D32*
%TO.C,BZ4*%
X110370000Y-110050000D03*
D33*
X105370000Y-110050000D03*
%TD*%
D32*
%TO.C,BZ1*%
X125680000Y-99070000D03*
D33*
X130680000Y-99070000D03*
%TD*%
D13*
%TO.C,C9*%
X115387176Y-132551000D03*
X113487176Y-132551000D03*
%TD*%
D16*
%TO.C,J2*%
X103990000Y-75490000D03*
X91990000Y-75490000D03*
D17*
X95440000Y-80330000D03*
D18*
X96460000Y-77790000D03*
X97480000Y-80330000D03*
X98500000Y-77790000D03*
X99520000Y-80330000D03*
X100540000Y-77790000D03*
%TD*%
D23*
%TO.C,R20*%
X146927176Y-126891000D03*
X145277176Y-126891000D03*
%TD*%
D12*
%TO.C,R7*%
X113450000Y-86020000D03*
X115100000Y-86020000D03*
%TD*%
D22*
%TO.C,R14*%
X91750000Y-87770000D03*
X91750000Y-89420000D03*
%TD*%
M02*
