M48
; DRILL file {KiCad 9.0.7-9.0.7~ubuntu24.04.1} date 2026-03-21T22:47:37-0400
; FORMAT={-:-/ absolute / inch / decimal}
; #@! TF.CreationDate,2026-03-21T22:47:37-04:00
; #@! TF.GenerationSoftware,Kicad,Pcbnew,9.0.7-9.0.7~ubuntu24.04.1
; #@! TF.FileFunction,Plated,1,2,PTH
FMAT,2
INCH
; #@! TA.AperFunction,Plated,PTH,ViaDrill
T1C0.0118
; #@! TA.AperFunction,Plated,PTH,ComponentDrill
T2C0.0236
; #@! TA.AperFunction,Plated,PTH,ComponentDrill
T3C0.0354
; #@! TA.AperFunction,Plated,PTH,ComponentDrill
T4C0.0394
%
G90
G05
T1
X3.5921Y-4.0803
X3.6705Y-3.4547
X4.2169Y-4.935
X4.2362Y-4.8555
X4.3161Y-4.8736
X4.3886Y-3.4358
X4.402Y-3.8839
X4.4677Y-5.0445
X4.4841Y-5.0012
X4.4908Y-4.8788
X4.5115Y-4.9114
X4.5339Y-4.9756
X4.5539Y-5.0262
X4.5604Y-4.9587
X4.5747Y-5.1229
X4.6794Y-5.1524
X4.7243Y-4.7953
X4.7483Y-3.9489
X4.7538Y-5.1524
X4.7688Y-4.4674
X4.7766Y-3.9349
X4.8011Y-4.8886
X4.816Y-4.7615
X4.8239Y-4.63
X4.8245Y-4.4691
X4.846Y-4.5658
X4.8475Y-4.7606
X4.8711Y-4.5386
X4.8754Y-4.7752
X4.8985Y-4.7978
X4.8987Y-4.5756
X4.9078Y-4.4768
X4.9252Y-4.2291
X4.9267Y-4.6063
X4.9267Y-4.7717
X4.9322Y-4.4555
X4.9322Y-4.9429
X4.961Y-4.9557
X4.9611Y-4.9114
X4.9633Y-4.8771
X4.9693Y-3.4252
X4.9751Y-4.8174
X4.9794Y-4.5012
X4.9889Y-4.9703
X4.9938Y-4.766
X4.9984Y-4.7224
X4.9987Y-4.6248
X5.0165Y-4.2299
X5.0181Y-4.8201
X5.0373Y-4.6382
X5.0681Y-5.0746
X5.316Y-4.9315
X5.3698Y-4.4817
X5.3728Y-3.5851
X5.3965Y-4.3674
X5.3971Y-4.9788
X5.4201Y-3.5848
X5.4201Y-3.9059
X5.4204Y-4.0665
X5.4268Y-4.4795
X5.4349Y-4.9855
X5.4543Y-5.0646
X5.4688Y-4.6626
X5.4701Y-4.7146
X5.5089Y-5.0801
X5.5283Y-4.7134
X5.6598Y-4.6165
X5.6661Y-4.4063
X5.6684Y-4.7
T3
X3.2933Y-3.2996
X3.2933Y-3.3799
X3.2933Y-3.4602
X3.2933Y-4.5067
X3.2933Y-4.587
X3.2933Y-4.6673
X3.2937Y-3.9031
X3.2937Y-3.9835
X3.2937Y-4.0638
X3.2937Y-5.1098
X3.2937Y-5.1902
X3.2937Y-5.2705
X3.3933Y-3.3398
X3.3933Y-3.4201
X3.3933Y-3.5004
X3.3933Y-4.5469
X3.3933Y-4.6272
X3.3933Y-4.7075
X3.3937Y-3.9433
X3.3937Y-4.0236
X3.3937Y-4.1039
X3.3937Y-5.15
X3.3937Y-5.2303
X3.3937Y-5.3106
X3.7575Y-3.1626
X3.7976Y-3.0626
X3.8378Y-3.1626
X3.878Y-3.0626
X3.9181Y-3.1626
X3.9583Y-3.0626
X4.3618Y-3.1646
X4.402Y-3.0646
X4.4421Y-3.1646
X4.4823Y-3.0646
X4.5224Y-3.1646
X4.5626Y-3.0646
X4.9654Y-3.1642
X5.0055Y-3.0642
X5.0457Y-3.1642
X5.0858Y-3.0642
X5.126Y-3.1642
X5.1661Y-3.0642
X5.5697Y-3.165
X5.6098Y-3.065
X5.65Y-3.165
X5.6902Y-3.065
X5.7303Y-3.165
X5.7705Y-3.065
X6.1283Y-3.8988
X6.1283Y-3.9791
X6.1283Y-4.0594
X6.1283Y-4.5016
X6.1283Y-4.5819
X6.1283Y-4.6622
X6.1291Y-3.2949
X6.1291Y-3.3752
X6.1291Y-3.4555
X6.1291Y-5.1059
X6.1291Y-5.1862
X6.1291Y-5.2665
X6.2283Y-3.939
X6.2283Y-4.0193
X6.2283Y-4.0996
X6.2283Y-4.5417
X6.2283Y-4.622
X6.2283Y-4.7024
X6.2291Y-3.335
X6.2291Y-3.4154
X6.2291Y-3.4957
X6.2291Y-5.1461
X6.2291Y-5.2264
X6.2291Y-5.3067
T4
X4.1484Y-4.3327
X4.2213Y-4.6929
X4.3213Y-4.6929
X4.3453Y-4.3327
X4.5323Y-3.8126
X4.5323Y-4.0094
X4.7024Y-4.3409
X4.8992Y-4.3409
X4.948Y-3.9004
X5.124Y-5.5472
X5.1449Y-3.9004
X5.224Y-5.5472
X5.2965Y-4.2776
X5.3965Y-4.2776
X5.4475Y-4.7918
X5.4965Y-4.2776
X5.5475Y-4.7918
X5.5965Y-4.2776
X5.7252Y-5.338
X5.8252Y-5.338
T2
G00X4.5571Y-5.5378
M15
G01X4.5571Y-5.5811
M16
G05
G00X4.5571Y-5.7083
M15
G01X4.5571Y-5.7398
M16
G05
G00X4.8972Y-5.5378
M15
G01X4.8972Y-5.5811
M16
G05
G00X4.8972Y-5.7083
M15
G01X4.8972Y-5.7398
M16
G05
M30
