%TF.GenerationSoftware,KiCad,Pcbnew,9.0.7-9.0.7~ubuntu24.04.1*%
%TF.CreationDate,2026-03-21T22:47:29-04:00*%
%TF.ProjectId,CertamenBuzzers,43657274-616d-4656-9e42-757a7a657273,rev?*%
%TF.SameCoordinates,Original*%
%TF.FileFunction,Copper,L2,Bot*%
%TF.FilePolarity,Positive*%
%FSLAX46Y46*%
G04 Gerber Fmt 4.6, Leading zero omitted, Abs format (unit mm)*
G04 Created by KiCad (PCBNEW 9.0.7-9.0.7~ubuntu24.04.1) date 2026-03-21 22:47:29*
%MOMM*%
%LPD*%
G01*
G04 APERTURE LIST*
%TA.AperFunction,ComponentPad*%
%ADD10R,1.700000X1.700000*%
%TD*%
%TA.AperFunction,ComponentPad*%
%ADD11C,1.700000*%
%TD*%
%TA.AperFunction,ComponentPad*%
%ADD12R,1.520000X1.520000*%
%TD*%
%TA.AperFunction,ComponentPad*%
%ADD13C,1.520000*%
%TD*%
%TA.AperFunction,HeatsinkPad*%
%ADD14O,1.000000X2.100000*%
%TD*%
%TA.AperFunction,HeatsinkPad*%
%ADD15O,1.000000X1.800000*%
%TD*%
%TA.AperFunction,ComponentPad*%
%ADD16R,2.000000X2.000000*%
%TD*%
%TA.AperFunction,ComponentPad*%
%ADD17C,2.000000*%
%TD*%
%TA.AperFunction,ViaPad*%
%ADD18C,0.600000*%
%TD*%
%TA.AperFunction,Conductor*%
%ADD19C,0.200000*%
%TD*%
G04 APERTURE END LIST*
D10*
%TO.P,SW6,1,1*%
%TO.N,GND*%
X107220000Y-119200000D03*
D11*
%TO.P,SW6,2,2*%
%TO.N,/Sc_{C}*%
X109760000Y-119200000D03*
%TD*%
D12*
%TO.P,J7,1*%
%TO.N,unconnected-(J7-Pad1)*%
X86200000Y-104240000D03*
D13*
%TO.P,J7,2*%
%TO.N,unconnected-(J7-Pad2)*%
X83660000Y-103220000D03*
%TO.P,J7,3*%
%TO.N,GND*%
X86200000Y-102200000D03*
%TO.P,J7,4*%
%TO.N,unconnected-(J7-Pad4)*%
X83660000Y-101180000D03*
%TO.P,J7,5*%
%TO.N,/A3*%
X86200000Y-100160000D03*
%TO.P,J7,6*%
%TO.N,unconnected-(J7-Pad6)*%
X83660000Y-99140000D03*
%TD*%
D12*
%TO.P,J9,1*%
%TO.N,unconnected-(J9-Pad1)*%
X155660000Y-114340000D03*
D13*
%TO.P,J9,2*%
%TO.N,unconnected-(J9-Pad2)*%
X158200000Y-115360000D03*
%TO.P,J9,3*%
%TO.N,GND*%
X155660000Y-116380000D03*
%TO.P,J9,4*%
%TO.N,unconnected-(J9-Pad4)*%
X158200000Y-117400000D03*
%TO.P,J9,5*%
%TO.N,/C3*%
X155660000Y-118420000D03*
%TO.P,J9,6*%
%TO.N,unconnected-(J9-Pad6)*%
X158200000Y-119440000D03*
%TD*%
D10*
%TO.P,SW3,1,1*%
%TO.N,Net-(U1-GPIO4)*%
X138367176Y-121711000D03*
D11*
%TO.P,SW3,2,2*%
%TO.N,GND*%
X140907176Y-121711000D03*
%TD*%
D10*
%TO.P,SW4,1,1*%
%TO.N,GND*%
X147960000Y-135585000D03*
D11*
%TO.P,SW4,2,2*%
%TO.N,/Sc_{A}*%
X145420000Y-135585000D03*
%TD*%
D12*
%TO.P,J4,1*%
%TO.N,unconnected-(J4-Pad1)*%
X155660000Y-99030000D03*
D13*
%TO.P,J4,2*%
%TO.N,unconnected-(J4-Pad2)*%
X158200000Y-100050000D03*
%TO.P,J4,3*%
%TO.N,GND*%
X155660000Y-101070000D03*
%TO.P,J4,4*%
%TO.N,unconnected-(J4-Pad4)*%
X158200000Y-102090000D03*
%TO.P,J4,5*%
%TO.N,/C2*%
X155660000Y-103110000D03*
%TO.P,J4,6*%
%TO.N,unconnected-(J4-Pad6)*%
X158200000Y-104130000D03*
%TD*%
D12*
%TO.P,J6,1*%
%TO.N,unconnected-(J6-Pad1)*%
X86190000Y-119570000D03*
D13*
%TO.P,J6,2*%
%TO.N,unconnected-(J6-Pad2)*%
X83650000Y-118550000D03*
%TO.P,J6,3*%
%TO.N,GND*%
X86190000Y-117530000D03*
%TO.P,J6,4*%
%TO.N,unconnected-(J6-Pad4)*%
X83650000Y-116510000D03*
%TO.P,J6,5*%
%TO.N,/A2*%
X86190000Y-115490000D03*
%TO.P,J6,6*%
%TO.N,unconnected-(J6-Pad6)*%
X83650000Y-114470000D03*
%TD*%
D14*
%TO.P,J1,S1,SHIELD*%
%TO.N,GND*%
X115750000Y-141210000D03*
D15*
X115750000Y-145390000D03*
D14*
X124390000Y-141210000D03*
D15*
X124390000Y-145390000D03*
%TD*%
D12*
%TO.P,J11,1*%
%TO.N,unconnected-(J11-Pad1)*%
X141470000Y-80390000D03*
D13*
%TO.P,J11,2*%
%TO.N,unconnected-(J11-Pad2)*%
X142490000Y-77850000D03*
%TO.P,J11,3*%
%TO.N,GND*%
X143510000Y-80390000D03*
%TO.P,J11,4*%
%TO.N,unconnected-(J11-Pad4)*%
X144530000Y-77850000D03*
%TO.P,J11,5*%
%TO.N,/B4*%
X145550000Y-80390000D03*
%TO.P,J11,6*%
%TO.N,unconnected-(J11-Pad6)*%
X146570000Y-77850000D03*
%TD*%
D16*
%TO.P,BZ2,1,+*%
%TO.N,/BZ2*%
X119440000Y-110260000D03*
D17*
%TO.P,BZ2,2,-*%
%TO.N,GND*%
X124440000Y-110260000D03*
%TD*%
D12*
%TO.P,J10,1*%
%TO.N,unconnected-(J10-Pad1)*%
X155680000Y-129690000D03*
D13*
%TO.P,J10,2*%
%TO.N,unconnected-(J10-Pad2)*%
X158220000Y-130710000D03*
%TO.P,J10,3*%
%TO.N,GND*%
X155680000Y-131730000D03*
%TO.P,J10,4*%
%TO.N,unconnected-(J10-Pad4)*%
X158220000Y-132750000D03*
%TO.P,J10,5*%
%TO.N,/C4*%
X155680000Y-133770000D03*
%TO.P,J10,6*%
%TO.N,unconnected-(J10-Pad6)*%
X158220000Y-134790000D03*
%TD*%
D12*
%TO.P,J8,1*%
%TO.N,unconnected-(J8-Pad1)*%
X126120000Y-80370000D03*
D13*
%TO.P,J8,2*%
%TO.N,unconnected-(J8-Pad2)*%
X127140000Y-77830000D03*
%TO.P,J8,3*%
%TO.N,GND*%
X128160000Y-80370000D03*
%TO.P,J8,4*%
%TO.N,unconnected-(J8-Pad4)*%
X129180000Y-77830000D03*
%TO.P,J8,5*%
%TO.N,/B3*%
X130200000Y-80370000D03*
%TO.P,J8,6*%
%TO.N,unconnected-(J8-Pad6)*%
X131220000Y-77830000D03*
%TD*%
D12*
%TO.P,J14,1*%
%TO.N,unconnected-(J14-Pad1)*%
X155680000Y-83690000D03*
D13*
%TO.P,J14,2*%
%TO.N,unconnected-(J14-Pad2)*%
X158220000Y-84710000D03*
%TO.P,J14,3*%
%TO.N,GND*%
X155680000Y-85730000D03*
%TO.P,J14,4*%
%TO.N,unconnected-(J14-Pad4)*%
X158220000Y-86750000D03*
%TO.P,J14,5*%
%TO.N,/C1*%
X155680000Y-87770000D03*
%TO.P,J14,6*%
%TO.N,unconnected-(J14-Pad6)*%
X158220000Y-88790000D03*
%TD*%
D10*
%TO.P,SSD1,1,GND*%
%TO.N,GND*%
X134530000Y-108650000D03*
D11*
%TO.P,SSD1,2,VCC*%
%TO.N,+3V3*%
X137070000Y-108650000D03*
%TO.P,SSD1,3,SCL*%
%TO.N,/SCL*%
X139610000Y-108650000D03*
%TO.P,SSD1,4,SDA*%
%TO.N,/SDA*%
X142150000Y-108650000D03*
%TD*%
D12*
%TO.P,J5,1*%
%TO.N,unconnected-(J5-Pad1)*%
X110790000Y-80380000D03*
D13*
%TO.P,J5,2*%
%TO.N,unconnected-(J5-Pad2)*%
X111810000Y-77840000D03*
%TO.P,J5,3*%
%TO.N,GND*%
X112830000Y-80380000D03*
%TO.P,J5,4*%
%TO.N,unconnected-(J5-Pad4)*%
X113850000Y-77840000D03*
%TO.P,J5,5*%
%TO.N,/B2*%
X114870000Y-80380000D03*
%TO.P,J5,6*%
%TO.N,unconnected-(J5-Pad6)*%
X115890000Y-77840000D03*
%TD*%
D16*
%TO.P,BZ3,1,+*%
%TO.N,/BZ3*%
X115120000Y-101840000D03*
D17*
%TO.P,BZ3,2,-*%
%TO.N,GND*%
X115120000Y-96840000D03*
%TD*%
D12*
%TO.P,J3,1*%
%TO.N,unconnected-(J3-Pad1)*%
X86200000Y-134890000D03*
D13*
%TO.P,J3,2*%
%TO.N,unconnected-(J3-Pad2)*%
X83660000Y-133870000D03*
%TO.P,J3,3*%
%TO.N,GND*%
X86200000Y-132850000D03*
%TO.P,J3,4*%
%TO.N,unconnected-(J3-Pad4)*%
X83660000Y-131830000D03*
%TO.P,J3,5*%
%TO.N,/A1*%
X86200000Y-130810000D03*
%TO.P,J3,6*%
%TO.N,unconnected-(J3-Pad6)*%
X83660000Y-129790000D03*
%TD*%
D10*
%TO.P,SW5,1,1*%
%TO.N,GND*%
X132690000Y-140900000D03*
D11*
%TO.P,SW5,2,2*%
%TO.N,/Sc_{B}*%
X130150000Y-140900000D03*
%TD*%
D12*
%TO.P,J12,1*%
%TO.N,unconnected-(J12-Pad1)*%
X86190000Y-88910000D03*
D13*
%TO.P,J12,2*%
%TO.N,unconnected-(J12-Pad2)*%
X83650000Y-87890000D03*
%TO.P,J12,3*%
%TO.N,GND*%
X86190000Y-86870000D03*
%TO.P,J12,4*%
%TO.N,unconnected-(J12-Pad4)*%
X83650000Y-85850000D03*
%TO.P,J12,5*%
%TO.N,/A4*%
X86190000Y-84830000D03*
%TO.P,J12,6*%
%TO.N,unconnected-(J12-Pad6)*%
X83650000Y-83810000D03*
%TD*%
D16*
%TO.P,BZ4,1,+*%
%TO.N,/BZ4*%
X110370000Y-110050000D03*
D17*
%TO.P,BZ4,2,-*%
%TO.N,GND*%
X105370000Y-110050000D03*
%TD*%
D16*
%TO.P,BZ1,1,+*%
%TO.N,/BZ1*%
X125680000Y-99070000D03*
D17*
%TO.P,BZ1,2,-*%
%TO.N,GND*%
X130680000Y-99070000D03*
%TD*%
D12*
%TO.P,J2,1*%
%TO.N,unconnected-(J2-Pad1)*%
X95440000Y-80330000D03*
D13*
%TO.P,J2,2*%
%TO.N,unconnected-(J2-Pad2)*%
X96460000Y-77790000D03*
%TO.P,J2,3*%
%TO.N,GND*%
X97480000Y-80330000D03*
%TO.P,J2,4*%
%TO.N,unconnected-(J2-Pad4)*%
X98500000Y-77790000D03*
%TO.P,J2,5*%
%TO.N,/B1*%
X99520000Y-80330000D03*
%TO.P,J2,6*%
%TO.N,unconnected-(J2-Pad6)*%
X100540000Y-77790000D03*
%TD*%
D18*
%TO.N,GND*%
X125100000Y-107420000D03*
X137840000Y-113780000D03*
X114067176Y-123921000D03*
X135027176Y-125261000D03*
X137087176Y-126461000D03*
X138940000Y-119750000D03*
X127420000Y-107440000D03*
X121947176Y-124171000D03*
X140420000Y-119720000D03*
X136394186Y-113834186D03*
%TO.N,+3V3*%
X143920000Y-111920000D03*
X107600000Y-123330000D03*
X93230000Y-87750000D03*
X91240000Y-103640000D03*
X107110000Y-125350000D03*
X126960000Y-119950000D03*
X139927176Y-129035000D03*
X126220000Y-87000000D03*
X111470000Y-87270000D03*
X137070000Y-110931000D03*
X127946508Y-117811000D03*
X138047176Y-126631000D03*
%TO.N,/B1*%
X111810000Y-98650000D03*
X126067667Y-123878742D03*
X122542911Y-113515265D03*
X121127176Y-113471000D03*
%TO.N,/A1*%
X126717437Y-126244916D03*
X113897176Y-127031000D03*
%TO.N,/C2*%
X125277176Y-113169527D03*
X137677176Y-103290000D03*
X123087176Y-115971000D03*
X123126901Y-120919955D03*
%TO.N,/B2*%
X121324788Y-99947394D03*
X126367175Y-122360710D03*
%TO.N,/A2*%
X126008715Y-125873813D03*
X115160000Y-126380000D03*
%TO.N,/A3*%
X114591472Y-124750000D03*
X125277176Y-125550000D03*
%TO.N,/B3*%
X124427176Y-116221000D03*
X124421889Y-121863995D03*
%TO.N,/C3*%
X143760000Y-117260000D03*
X122327176Y-120941000D03*
X122526901Y-117601000D03*
X126967176Y-117471000D03*
%TO.N,/C4*%
X143977176Y-119381000D03*
X138907176Y-118431000D03*
%TO.N,/B4*%
X137670000Y-91054265D03*
X136470000Y-91062241D03*
X126477176Y-114331000D03*
X125137176Y-117001000D03*
X125137176Y-121201928D03*
%TO.N,/A4*%
X126011776Y-124750290D03*
X120607176Y-100301000D03*
%TO.N,/C1*%
X123727176Y-115281000D03*
X137670000Y-99210000D03*
X123835651Y-121291000D03*
X124657176Y-113711000D03*
%TO.N,Net-(U1-XOUT)*%
X126842176Y-121056000D03*
X127460000Y-122430000D03*
%TO.N,/Sc_{A}*%
X138540000Y-128640000D03*
%TO.N,+1V1*%
X118857500Y-130871000D03*
X119997176Y-121801000D03*
X120747176Y-130871000D03*
X115670252Y-127665627D03*
X116197176Y-130121000D03*
X115834610Y-125950000D03*
%TO.N,/Sc_{B}*%
X128729270Y-128895920D03*
%TO.N,/Sc_{C}*%
X113480000Y-128130000D03*
X109630000Y-123790000D03*
%TD*%
D19*
%TO.N,GND*%
X114586825Y-123961000D02*
X121737176Y-123961000D01*
X138940000Y-119750000D02*
X140390000Y-119750000D01*
X114067176Y-123921000D02*
X114546825Y-123921000D01*
X125100000Y-107420000D02*
X127400000Y-107420000D01*
X121737176Y-123961000D02*
X121947176Y-124171000D01*
X127400000Y-107420000D02*
X127420000Y-107440000D01*
X114546825Y-123921000D02*
X114586825Y-123961000D01*
X136394186Y-113834186D02*
X136448372Y-113780000D01*
X136227176Y-126461000D02*
X135027176Y-125261000D01*
X137087176Y-126461000D02*
X136227176Y-126461000D01*
X136448372Y-113780000D02*
X137840000Y-113780000D01*
X140390000Y-119750000D02*
X140420000Y-119720000D01*
%TO.N,+3V3*%
X142931000Y-110931000D02*
X143920000Y-111920000D01*
X127270000Y-119640000D02*
X127270000Y-118570000D01*
X93230000Y-87750000D02*
X93230000Y-101920000D01*
X93230000Y-87750000D02*
X110820000Y-87750000D01*
X92380000Y-102770000D02*
X91510000Y-103640000D01*
X125470000Y-87750000D02*
X126220000Y-87000000D01*
X110820000Y-87750000D02*
X125470000Y-87750000D01*
X137070000Y-110931000D02*
X142931000Y-110931000D01*
X127736441Y-118036000D02*
X127736441Y-118021067D01*
X107110000Y-123820000D02*
X107600000Y-123330000D01*
X127590000Y-118250000D02*
X127590000Y-118182441D01*
X138077176Y-126661000D02*
X138077176Y-127185000D01*
X110820000Y-87750000D02*
X110990000Y-87750000D01*
X107110000Y-125350000D02*
X107110000Y-123820000D01*
X93230000Y-101920000D02*
X92380000Y-102770000D01*
X127736441Y-118021067D02*
X127946508Y-117811000D01*
X127590000Y-118182441D02*
X127736441Y-118036000D01*
X138077176Y-127185000D02*
X139927176Y-129035000D01*
X127270000Y-118570000D02*
X127590000Y-118250000D01*
X91510000Y-103640000D02*
X91240000Y-103640000D01*
X126960000Y-119950000D02*
X127270000Y-119640000D01*
X110990000Y-87750000D02*
X111470000Y-87270000D01*
X138047176Y-126631000D02*
X138077176Y-126661000D01*
%TO.N,/B1*%
X125767176Y-122110766D02*
X125767176Y-116238100D01*
X126067667Y-123878742D02*
X125977176Y-123788250D01*
X125766175Y-122609653D02*
X125766175Y-122111767D01*
X123044341Y-113515265D02*
X122542911Y-113515265D01*
X111810000Y-98650000D02*
X113657176Y-100497176D01*
X125767176Y-123351000D02*
X125767176Y-122610654D01*
X125977176Y-123788250D02*
X125977176Y-123561000D01*
X125977176Y-123561000D02*
X125767176Y-123351000D01*
X125766175Y-122111767D02*
X125767176Y-122110766D01*
X117007176Y-113531000D02*
X121007176Y-113531000D01*
X121067176Y-113471000D02*
X121127176Y-113471000D01*
X125767176Y-122610654D02*
X125766175Y-122609653D01*
X125767176Y-116238100D02*
X123044341Y-113515265D01*
X113657176Y-110181000D02*
X117007176Y-113531000D01*
X113657176Y-100497176D02*
X113657176Y-110181000D01*
X121007176Y-113531000D02*
X121067176Y-113471000D01*
%TO.N,/A1*%
X125837176Y-126561000D02*
X125408176Y-126990000D01*
X115659943Y-126991000D02*
X115658943Y-126990000D01*
X125408176Y-126990000D02*
X125295276Y-126990000D01*
X126717437Y-126244916D02*
X126717437Y-126300739D01*
X126717437Y-126300739D02*
X126457176Y-126561000D01*
X115658943Y-126990000D02*
X113938176Y-126990000D01*
X125295276Y-126990000D02*
X125294276Y-126991000D01*
X126457176Y-126561000D02*
X125837176Y-126561000D01*
X113938176Y-126990000D02*
X113897176Y-127031000D01*
X125294276Y-126991000D02*
X115659943Y-126991000D01*
%TO.N,/C2*%
X137627176Y-103240000D02*
X135380000Y-103240000D01*
X135018176Y-103601824D02*
X135018176Y-103610000D01*
X123087176Y-115971000D02*
X123126901Y-116010725D01*
X135380000Y-103240000D02*
X135018176Y-103601824D01*
X123126901Y-116010725D02*
X123126901Y-120919955D01*
X125458649Y-113169527D02*
X125277176Y-113169527D01*
X137677176Y-103290000D02*
X137627176Y-103240000D01*
X135018176Y-103610000D02*
X125458649Y-113169527D01*
%TO.N,/B2*%
X121324788Y-99947394D02*
X122247176Y-100869782D01*
X126297885Y-122430000D02*
X126367175Y-122360710D01*
X122247176Y-112151000D02*
X126197176Y-116101000D01*
X126197176Y-116101000D02*
X126197176Y-122401000D01*
X122247176Y-100869782D02*
X122247176Y-112151000D01*
X126197176Y-122401000D02*
X126226176Y-122430000D01*
X126226176Y-122430000D02*
X126297885Y-122430000D01*
%TO.N,/A2*%
X125158176Y-126560000D02*
X125844363Y-125873813D01*
X115160000Y-126380000D02*
X115319000Y-126380000D01*
X115319000Y-126380000D02*
X115499000Y-126560000D01*
X125844363Y-125873813D02*
X126008715Y-125873813D01*
X115499000Y-126560000D02*
X125158176Y-126560000D01*
%TO.N,/A3*%
X125277176Y-125550000D02*
X125277176Y-125231000D01*
X125277176Y-125231000D02*
X125017176Y-124971000D01*
X114812471Y-124971000D02*
X114591472Y-124750000D01*
X125017176Y-124971000D02*
X114812471Y-124971000D01*
%TO.N,/B3*%
X124421889Y-121863995D02*
X124437176Y-121848708D01*
X124437176Y-121848708D02*
X124437176Y-116271000D01*
%TO.N,/C3*%
X127617176Y-117211000D02*
X127197176Y-117631000D01*
X127197176Y-117631000D02*
X127127176Y-117631000D01*
X143450000Y-117260000D02*
X143401000Y-117211000D01*
X127127176Y-117631000D02*
X126967176Y-117471000D01*
X122526901Y-117601000D02*
X122327176Y-117800725D01*
X122327176Y-117800725D02*
X122327176Y-120941000D01*
X143760000Y-117260000D02*
X143450000Y-117260000D01*
X143401000Y-117211000D02*
X127617176Y-117211000D01*
%TO.N,/C4*%
X143027176Y-118431000D02*
X143977176Y-119381000D01*
X138907176Y-118431000D02*
X143027176Y-118431000D01*
%TO.N,/B4*%
X125137176Y-116891000D02*
X125147176Y-116881000D01*
X136470000Y-91062241D02*
X137662024Y-91062241D01*
X126477176Y-114441000D02*
X126387176Y-114531000D01*
X125137176Y-117001000D02*
X125137176Y-116891000D01*
X126477176Y-114331000D02*
X126477176Y-114441000D01*
X137662024Y-91062241D02*
X137670000Y-91054265D01*
X125137176Y-117001000D02*
X125137176Y-121201928D01*
%TO.N,/A4*%
X121727176Y-101421000D02*
X120607176Y-100301000D01*
X125611398Y-124271000D02*
X123037176Y-124271000D01*
X121727176Y-122961000D02*
X121727176Y-101421000D01*
X126011776Y-124750290D02*
X126011776Y-124671378D01*
X126011776Y-124671378D02*
X125611398Y-124271000D01*
X123037176Y-124271000D02*
X121727176Y-122961000D01*
%TO.N,/C1*%
X123727176Y-115281000D02*
X123767176Y-115321000D01*
X123767176Y-121154050D02*
X123835651Y-121222525D01*
X123835651Y-121222525D02*
X123835651Y-121291000D01*
X137587176Y-99292824D02*
X137587176Y-99351000D01*
X137670000Y-99210000D02*
X137587176Y-99292824D01*
X124676176Y-113692000D02*
X124657176Y-113711000D01*
X137587176Y-99351000D02*
X124676176Y-112262000D01*
X124676176Y-112262000D02*
X124676176Y-113692000D01*
X123767176Y-115321000D02*
X123767176Y-121154050D01*
%TO.N,Net-(U1-XOUT)*%
X127317176Y-121595013D02*
X127317176Y-122287176D01*
X126842176Y-121120013D02*
X127317176Y-121595013D01*
X126842176Y-121056000D02*
X126842176Y-121120013D01*
X127317176Y-122287176D02*
X127460000Y-122430000D01*
%TO.N,/Sc_{A}*%
X138540000Y-128640000D02*
X145420000Y-135520000D01*
X145420000Y-135520000D02*
X145420000Y-135585000D01*
%TO.N,+1V1*%
X115670252Y-127665627D02*
X115660000Y-127675879D01*
X115660000Y-127675879D02*
X115660000Y-129830000D01*
X115834610Y-125950000D02*
X116009250Y-125950000D01*
X115660000Y-129830000D02*
X115951000Y-130121000D01*
X119717176Y-121801000D02*
X119997176Y-121801000D01*
X119697176Y-121781000D02*
X119717176Y-121801000D01*
X115664610Y-125780000D02*
X114576176Y-125780000D01*
X115951000Y-130121000D02*
X116197176Y-130121000D01*
X115834610Y-125950000D02*
X115664610Y-125780000D01*
X113467176Y-124671000D02*
X113467176Y-123501000D01*
X114576176Y-125780000D02*
X113467176Y-124671000D01*
X115187176Y-121781000D02*
X119697176Y-121781000D01*
X118857500Y-130871000D02*
X120747176Y-130871000D01*
X113467176Y-123501000D02*
X115187176Y-121781000D01*
%TO.N,/Sc_{B}*%
X129340000Y-128920000D02*
X128620000Y-128920000D01*
X130150000Y-129730000D02*
X129340000Y-128920000D01*
X128620000Y-128920000D02*
X128570000Y-128970000D01*
X130150000Y-140900000D02*
X130150000Y-129730000D01*
%TO.N,/Sc_{C}*%
X112950000Y-127560000D02*
X113480000Y-128090000D01*
X109630000Y-123790000D02*
X109630000Y-126870000D01*
X113480000Y-128090000D02*
X113480000Y-128130000D01*
X112880000Y-127490000D02*
X112950000Y-127560000D01*
X110250000Y-127490000D02*
X112880000Y-127490000D01*
X109630000Y-126870000D02*
X110250000Y-127490000D01*
%TD*%
M02*
